<?xml version="1.0" standalone="no"?>
<!DOCTYPE svg PUBLIC "-//W3C//DTD SVG 20010904//EN"
 "http://www.w3.org/TR/2001/REC-SVG-20010904/DTD/svg10.dtd">
<svg version="1.0" xmlns="http://www.w3.org/2000/svg"
 width="1904.000000pt" height="1904.000000pt" viewBox="0 0 1904.000000 1904.000000"
 preserveAspectRatio="xMidYMid meet">
<metadata>
Created by potrace 1.11, written by Peter Selinger 2001-2013
</metadata>
<g transform="translate(0.000000,1904.000000) scale(0.100000,-0.100000)"
fill="#000000" stroke="none">
<path d="M7528 13503 c-11 -14 -16 -133 -5 -149 3 -6 2 -16 -3 -24 -5 -8 -5
-22 1 -32 5 -10 6 -18 2 -18 -4 0 -8 -25 -8 -55 0 -30 2 -55 5 -55 4 0 4 -71
0 -77 -5 -8 -3 -50 3 -60 4 -6 4 -14 -1 -17 -9 -5 -7 -104 3 -114 3 -4 93 -7
200 -7 l194 0 0 -25 c3 -81 4 -84 42 -86 19 -2 40 1 46 4 7 4 14 50 18 110 l6
102 -31 0 c-35 0 -32 -31 -30 288 1 174 -2 222 -12 223 -44 3 -90 0 -96 -5 -3
-4 -7 -118 -7 -254 l0 -247 -27 0 c-15 -1 -30 -3 -33 -7 -3 -3 -23 -2 -45 2
-21 4 -44 4 -50 0 -7 -4 -24 -4 -39 -1 l-26 7 -2 240 c0 131 -2 244 -2 250 -1
17 -90 22 -103 7z"/>
<path d="M8281 13510 l-35 -5 0 -298 c-1 -256 1 -298 14 -301 8 -2 98 -3 200
-2 l185 1 3 53 3 53 -123 -1 c-68 -1 -131 -1 -140 -1 -16 1 -18 12 -18 84 l0
83 105 -1 c58 0 106 2 106 5 4 14 4 98 1 95 -2 -2 -15 0 -28 5 -14 6 -26 6
-29 0 -3 -6 -15 -6 -30 0 -15 6 -27 6 -30 -1 -4 -5 -11 -6 -17 -3 -6 4 -26 7
-45 6 l-33 -1 0 63 0 64 123 -1 c68 0 128 2 133 6 5 3 9 18 8 34 -1 15 -3 37
-3 48 -1 19 -8 20 -158 20 -87 0 -173 -2 -192 -5z"/>
<path d="M8880 13512 l-25 -3 1 -302 c1 -166 2 -305 3 -309 0 -5 25 -8 55 -8
l54 0 0 78 c0 42 1 95 1 118 l1 41 87 1 c66 1 96 7 126 22 40 21 76 56 77 75
0 6 6 22 14 37 8 15 12 29 9 32 -3 3 -7 24 -8 48 -5 88 -59 152 -136 165 -35
5 -225 9 -259 5z m267 -134 c26 -24 24 -91 -3 -117 -16 -14 -37 -19 -95 -20
l-74 -1 0 79 0 79 76 -1 c57 -2 82 -6 96 -19z"/>
<path d="M9835 13512 c-18 -2 -41 -15 -56 -33 -15 -16 -55 -61 -90 -100 -35
-39 -65 -75 -67 -80 -8 -20 -21 -7 -20 20 1 15 -2 33 -6 40 -4 6 -4 11 1 11 9
0 8 85 -2 100 -3 5 -2 10 4 10 6 0 8 7 4 15 -4 12 -18 15 -61 13 l-55 -3 0
-298 c0 -163 3 -300 6 -304 12 -11 97 -11 104 0 6 9 8 66 3 85 -1 4 -1 12 0
17 5 24 3 92 -2 101 -4 5 -3 16 1 23 4 7 6 24 3 39 -4 21 6 13 44 -38 26 -36
51 -67 54 -70 14 -11 110 -144 110 -151 0 -19 139 -33 149 -14 4 7 -51 83
-130 179 -105 128 -121 154 -107 174 12 18 118 139 163 188 11 11 30 33 43 46
l23 26 -43 3 c-24 2 -56 3 -73 1z"/>
<path d="M10244 13495 c-110 -49 -164 -141 -169 -289 -5 -127 41 -227 129
-283 49 -32 75 -38 161 -37 138 1 240 82 271 214 19 86 6 221 -27 280 -25 45
-102 110 -143 122 -69 21 -166 18 -222 -7z m176 -98 c57 -12 108 -89 112 -168
4 -67 -11 -149 -27 -156 -8 -3 -15 -9 -15 -15 0 -33 -93 -70 -156 -62 -92 11
-148 87 -147 202 1 157 88 231 233 199z"/>
<path d="M10940 13512 l-65 -3 1 -32 c1 -18 3 -36 4 -42 1 -5 2 -12 1 -15 -6
-16 -5 -130 1 -130 4 0 3 -11 -2 -25 -6 -15 -6 -26 0 -30 6 -4 7 -13 1 -23 -6
-11 -6 -24 0 -34 6 -10 6 -19 0 -23 -7 -3 -7 -15 -1 -30 6 -15 6 -27 0 -30 -6
-3 -6 -15 0 -30 5 -14 6 -25 2 -25 -4 0 -7 -25 -7 -55 0 -30 3 -55 7 -55 4 0
5 -6 2 -14 -7 -19 15 -22 157 -21 108 1 131 4 172 24 62 30 88 68 94 139 6 69
-14 121 -57 152 l-30 21 25 23 c34 31 42 107 20 164 -33 81 -111 104 -325 94z
m169 -116 c44 -6 54 -18 54 -61 0 -48 -22 -62 -104 -64 l-68 -2 2 63 c2 61 3
63 32 69 17 3 35 4 40 3 6 -2 25 -5 44 -8z m60 -260 c27 -24 27 -75 1 -109
-11 -14 -28 -24 -38 -22 -9 1 -26 -1 -38 -5 -11 -5 -28 -4 -37 1 -11 7 -17 6
-17 -1 0 -7 -6 -8 -19 -1 -10 6 -21 8 -23 5 -3 -2 -5 32 -5 76 l0 81 78 -3
c59 -3 82 -8 98 -22z"/>
<path d="M11546 13504 c-13 -12 -16 -598 -4 -610 15 -14 266 -5 305 11 71 30
104 78 109 160 4 67 -10 115 -43 151 -38 40 -92 57 -185 56 -67 -1 -78 1 -79
16 0 9 0 63 1 120 0 56 -3 102 -7 103 -52 5 -89 2 -97 -7z m270 -363 c34 -21
41 -76 13 -112 -14 -19 -27 -23 -88 -25 -40 -2 -76 -6 -81 -9 -6 -4 -10 27
-10 79 l0 86 69 -1 c46 -1 79 -7 97 -18z"/>
<path d="M6168 13358 c-16 -13 -44 -59 -79 -128 -19 -38 -202 -338 -219 -357
-5 -7 -10 -15 -10 -18 0 -3 -8 -18 -18 -33 -73 -108 -87 -128 -92 -132 -3 -3
-17 -21 -30 -40 -13 -19 -29 -40 -36 -47 -6 -6 -44 -54 -84 -107 -40 -53 -77
-96 -81 -96 -5 0 -9 -6 -9 -14 0 -8 -3 -16 -8 -18 -4 -1 -25 -25 -47 -53 -22
-27 -47 -56 -55 -65 -8 -9 -42 -47 -75 -84 -259 -296 -741 -783 -1056 -1068
-14 -12 -66 -59 -114 -103 -49 -44 -97 -88 -108 -98 -38 -37 -447 -375 -541
-447 -54 -41 -115 -88 -136 -105 -40 -33 -55 -44 -183 -139 -48 -37 -90 -66
-92 -66 -4 0 -29 -19 -59 -45 -6 -5 -31 -23 -56 -40 -25 -16 -47 -33 -50 -36
-11 -12 -233 -159 -241 -159 -5 0 -9 -3 -9 -7 0 -5 -43 -35 -96 -68 -53 -33
-102 -66 -109 -72 -8 -7 -18 -13 -24 -13 -5 0 -16 -7 -24 -14 -13 -14 -312
-196 -402 -245 -22 -12 -60 -34 -85 -48 -76 -43 -301 -157 -380 -192 -41 -19
-93 -42 -115 -52 -74 -33 -280 -109 -295 -109 -9 0 -20 -4 -26 -8 -8 -8 -81
-32 -114 -38 -8 -1 -60 -14 -115 -28 -55 -15 -120 -29 -145 -32 -25 -3 -72 -9
-105 -13 -33 -5 -94 -7 -135 -6 -174 5 -201 22 -259 167 -56 140 -116 202
-205 214 l-47 7 6 -83 c3 -45 11 -94 16 -109 6 -14 10 -27 9 -29 -5 -7 25
-102 32 -102 4 0 8 -7 8 -15 0 -15 43 -87 66 -111 6 -7 21 -25 35 -40 51 -61
214 -164 259 -164 9 0 20 -4 25 -9 23 -20 158 -44 255 -45 81 0 243 14 305 28
17 3 40 9 53 11 209 45 460 131 687 235 128 58 320 155 323 162 2 5 8 8 14 8
5 0 57 27 114 60 57 33 106 60 109 60 3 0 11 5 18 10 7 6 81 53 166 105 161
100 367 238 463 312 31 23 61 43 66 43 6 0 12 4 14 8 2 5 35 31 73 57 87 60
172 123 205 153 14 12 28 22 32 22 3 0 13 7 21 15 8 8 75 63 148 122 74 59
145 118 159 129 14 12 48 41 75 64 28 23 61 52 75 64 31 26 171 147 186 161 6
6 55 51 110 100 149 137 149 136 309 294 126 124 292 298 355 371 8 9 38 44
65 76 28 32 59 68 70 80 11 12 36 41 55 65 72 87 145 174 158 188 25 26 25 1
0 -51 -15 -29 -94 -190 -176 -358 -82 -168 -161 -330 -175 -360 -13 -30 -54
-119 -91 -198 -36 -78 -66 -146 -66 -151 0 -5 -7 -14 -15 -21 -8 -7 -15 -18
-15 -26 0 -7 -20 -55 -44 -106 -49 -106 -166 -381 -191 -448 -40 -110 -47
-139 -50 -203 -8 -168 110 -340 221 -323 59 10 104 40 229 151 122 109 739
727 917 917 53 56 118 126 145 154 26 28 72 77 102 110 265 293 315 343 319
320 2 -9 -19 -64 -46 -124 -79 -170 -112 -242 -112 -247 0 -2 -13 -32 -29 -67
-56 -122 -90 -199 -90 -203 0 -3 -9 -26 -21 -51 -11 -26 -20 -48 -20 -50 0 -5
-49 -116 -60 -136 -6 -10 -10 -25 -10 -33 0 -8 -4 -15 -8 -15 -5 0 -9 -6 -9
-13 0 -11 -96 -263 -123 -322 -22 -49 -72 -215 -77 -260 -21 -152 3 -268 69
-336 39 -40 94 -63 114 -47 14 11 24 57 14 63 -7 4 0 29 25 103 2 7 5 16 6 20
2 10 38 103 49 127 5 11 18 43 29 71 11 28 29 71 40 95 11 24 34 78 52 119 17
41 47 109 66 150 20 41 48 102 63 135 15 33 42 92 59 130 66 143 267 544 324
645 33 58 72 128 87 156 15 27 57 99 94 158 36 60 66 110 66 111 0 14 387 604
410 625 19 17 128 169 137 190 34 84 -26 150 -179 194 -73 21 -123 20 -173 -3
-48 -22 -68 -40 -120 -106 -22 -27 -44 -55 -50 -61 -5 -6 -28 -33 -50 -60 -45
-55 -154 -183 -170 -200 -5 -6 -30 -35 -55 -64 -25 -29 -53 -62 -63 -74 -10
-11 -37 -43 -60 -70 -23 -27 -53 -61 -67 -76 -14 -15 -47 -53 -75 -85 -70 -81
-125 -144 -157 -177 -16 -16 -28 -31 -28 -34 0 -2 -12 -17 -27 -32 -16 -15
-43 -45 -62 -67 -46 -54 -190 -212 -272 -299 -37 -39 -86 -91 -109 -116 -158
-171 -309 -328 -540 -560 -291 -292 -365 -361 -436 -401 -58 -32 -67 -27 -61
34 3 28 10 66 17 82 6 17 14 40 16 53 5 24 72 206 101 272 8 19 19 44 23 55 5
11 23 53 40 94 28 65 46 105 122 271 53 115 292 597 314 632 13 21 21 38 18
38 -4 0 -1 8 7 18 8 9 28 44 44 77 17 33 33 62 38 63 4 2 7 8 7 12 0 5 30 62
66 127 37 65 78 138 92 163 13 25 39 70 57 100 51 86 206 351 227 390 11 19
26 42 34 51 8 8 14 19 14 22 0 4 43 77 95 162 52 86 95 160 95 164 0 5 4 11 8
13 7 3 162 253 202 326 8 15 17 29 20 32 15 14 98 159 106 185 20 58 -4 124
-57 163 -10 7 -24 18 -31 25 -21 18 -56 37 -71 37 -7 0 -20 -6 -29 -12z"/>
<path d="M14826 12155 c-32 -13 -82 -40 -112 -59 -30 -20 -58 -36 -63 -36 -5
0 -11 -3 -13 -8 -1 -4 -28 -27 -58 -50 -95 -75 -360 -322 -360 -336 0 -1 -19
-23 -41 -47 -58 -62 -145 -180 -166 -226 -10 -21 -21 -40 -24 -43 -4 -3 -16
-33 -26 -68 -18 -59 -22 -135 -10 -189 13 -53 66 -123 116 -151 65 -37 90 -50
136 -66 57 -21 77 -36 58 -43 -7 -3 -13 -9 -13 -15 0 -9 -87 -156 -100 -168
-3 -3 -22 -31 -44 -62 -21 -32 -42 -58 -46 -58 -5 0 -10 -6 -12 -14 -3 -14
-236 -297 -312 -381 -58 -63 -250 -257 -287 -290 -128 -113 -241 -199 -311
-234 -36 -18 -82 0 -98 40 -13 30 -9 96 9 142 6 15 8 27 6 27 -3 0 5 17 18 38
12 20 34 59 47 85 14 26 33 57 43 67 9 11 17 22 17 25 0 3 24 36 53 73 59 73
71 97 68 127 -4 31 -29 53 -88 75 -89 33 -163 26 -218 -22 -58 -50 -159 -201
-179 -268 -27 -92 -37 -150 -40 -240 -4 -118 30 -211 96 -264 18 -15 38 -30
44 -35 27 -22 144 -54 199 -54 50 -1 73 5 133 36 178 89 430 323 711 662 23
28 52 61 65 75 40 43 247 322 329 445 l78 116 37 -23 c49 -30 56 -35 108 -87
48 -49 65 -93 59 -156 -6 -64 -12 -82 -55 -167 -32 -64 -146 -236 -170 -258
-5 -4 -129 -171 -178 -239 -9 -12 -26 -35 -37 -49 -11 -15 -52 -72 -92 -127
-39 -55 -76 -105 -82 -111 -27 -32 -179 -266 -206 -319 -42 -85 -41 -147 5
-212 117 -168 189 -177 387 -50 24 15 44 27 47 27 2 0 33 17 67 39 71 42 369
215 439 253 76 42 151 83 250 137 52 29 111 61 130 72 19 11 60 32 90 47 30
15 57 29 60 32 3 3 43 25 90 48 47 23 122 62 168 86 45 25 82 43 82 40 0 -2
17 6 38 19 35 23 406 207 557 277 39 18 117 55 174 81 57 27 108 49 114 49 6
0 18 6 26 13 9 8 52 28 96 47 44 18 96 40 115 48 19 9 37 16 40 17 3 0 36 15
73 33 38 18 70 32 71 32 2 0 21 8 42 17 22 9 44 18 49 19 6 1 63 25 128 52 64
28 117 48 117 45 0 -3 6 -1 13 4 6 6 68 31 137 57 69 26 134 52 145 57 73 33
788 279 900 309 33 9 111 33 163 49 17 5 32 8 32 5 0 -3 8 0 18 5 9 5 31 11
47 14 17 3 41 8 55 11 14 4 63 13 110 21 103 19 149 40 147 67 -2 23 -107 123
-134 128 -66 11 -238 0 -297 -19 -17 -6 -42 -12 -56 -15 -46 -8 -294 -67 -340
-81 -43 -14 -217 -61 -251 -70 -9 -2 -63 -18 -120 -35 -57 -17 -111 -33 -119
-35 -8 -2 -15 -4 -15 -5 0 -1 -7 -3 -15 -5 -82 -21 -455 -148 -674 -230 -96
-36 -180 -65 -185 -65 -6 0 -11 -5 -11 -12 0 -6 -3 -8 -7 -5 -3 4 -12 2 -20
-4 -7 -6 -13 -9 -13 -6 0 3 -53 -17 -117 -44 -65 -27 -123 -49 -130 -49 -7 0
-13 -4 -13 -10 0 -5 -6 -10 -14 -10 -8 0 -65 -23 -127 -51 -63 -28 -118 -52
-124 -53 -45 -11 -731 -348 -1110 -546 -217 -114 -361 -189 -425 -221 -36 -19
-67 -36 -70 -39 -3 -3 -36 -21 -75 -41 -135 -68 -310 -162 -320 -170 -14 -14
-25 -11 -25 8 0 18 53 118 115 213 23 36 59 92 80 125 21 33 42 62 47 63 4 2
8 10 8 18 0 8 3 14 8 14 4 0 12 9 17 20 11 23 146 222 155 230 3 3 27 39 53
80 25 41 50 80 54 85 5 6 21 35 37 65 144 279 101 425 -165 556 -54 27 -99 55
-99 62 0 6 5 12 10 12 6 0 10 4 10 9 0 5 36 68 80 140 44 73 80 136 80 141 0
4 3 10 8 12 4 2 16 19 26 38 10 19 56 103 101 186 210 387 256 587 156 678
-33 30 -113 30 -185 1z m-108 -478 c20 -24 1 -73 -108 -272 -45 -83 -153 -269
-160 -275 -3 -3 -11 -17 -19 -32 -8 -16 -18 -28 -23 -28 -4 0 -8 -6 -8 -12 0
-7 -8 -23 -18 -35 l-17 -23 -62 29 c-90 43 -110 88 -76 173 39 101 335 427
424 468 53 23 54 24 67 7z"/>
<path d="M10060 12088 c-37 -7 -110 -26 -130 -34 -3 -1 -16 -5 -29 -9 -47 -16
-198 -99 -281 -156 -211 -144 -447 -373 -633 -614 -4 -5 -15 -20 -25 -32 -9
-11 -24 -31 -32 -43 -16 -23 -85 -119 -98 -135 -80 -105 -307 -489 -384 -650
-18 -38 -35 -72 -38 -75 -3 -3 -6 -10 -7 -16 -1 -7 -14 -37 -28 -67 -14 -31
-25 -63 -25 -71 0 -9 -5 -16 -10 -16 -6 0 -9 -3 -8 -7 1 -5 -10 -45 -26 -91
-15 -45 -29 -88 -30 -95 -2 -7 -6 -19 -9 -27 -9 -20 -39 -158 -42 -195 -2 -16
-4 -30 -5 -30 -13 0 -18 -302 -6 -380 4 -27 9 -59 11 -70 20 -132 114 -252
245 -313 66 -31 85 -35 160 -36 78 -1 91 2 164 37 156 74 362 223 581 420 153
138 732 725 875 886 36 41 71 80 79 88 16 17 28 9 14 -9 -9 -11 -40 -106 -48
-148 -2 -8 -8 -35 -15 -58 -24 -93 -34 -274 -18 -357 27 -146 89 -222 212
-259 42 -13 51 -13 116 -1 68 13 310 142 310 166 0 4 8 10 19 14 10 3 28 13
39 23 11 9 40 33 64 52 81 66 306 276 362 338 24 27 66 72 175 188 42 44 103
111 136 148 89 101 128 142 124 131 -2 -5 -34 -71 -71 -145 -81 -165 -133
-277 -143 -310 -4 -14 -11 -30 -16 -35 -4 -6 -18 -48 -30 -95 -23 -90 -21
-196 4 -212 6 -4 8 -8 2 -8 -5 0 14 -22 42 -49 52 -50 125 -83 166 -76 47 9
112 52 180 120 77 76 86 86 187 210 75 93 100 121 100 113 0 -2 -9 -39 -20
-82 -31 -121 -42 -292 -25 -386 11 -61 64 -157 103 -189 44 -37 81 -39 110 -8
28 30 28 41 -3 55 -13 6 -27 23 -31 38 -12 47 3 148 35 239 18 50 33 95 35
100 3 13 35 85 46 105 5 8 20 38 34 66 115 229 329 514 555 741 123 124 132
144 84 189 -34 31 -270 150 -302 152 -38 2 -58 -14 -68 -56 -9 -34 -106 -182
-125 -190 -5 -2 -8 -8 -8 -14 0 -5 -13 -26 -30 -46 -16 -20 -69 -86 -116 -147
-47 -60 -100 -126 -118 -145 -17 -19 -42 -48 -55 -65 -122 -158 -425 -453
-501 -489 -8 -4 -26 -13 -40 -21 -35 -20 -60 -19 -55 3 9 51 30 113 62 186 60
137 350 718 385 770 74 110 75 125 15 191 -38 43 -46 47 -74 41 -21 -5 -47
-27 -83 -69 -59 -70 -148 -170 -200 -226 -19 -20 -68 -74 -109 -119 -41 -46
-90 -100 -110 -121 -20 -21 -74 -80 -121 -131 -160 -174 -304 -323 -411 -426
-99 -94 -227 -204 -238 -204 -5 0 -11 -3 -13 -8 -6 -13 -101 -77 -166 -111
-81 -42 -150 -51 -176 -22 -26 28 -24 155 3 256 6 22 10 42 10 45 0 12 76 221
101 277 16 35 26 63 23 63 -3 0 -1 6 5 13 5 6 33 56 60 109 28 53 70 127 94
165 l43 68 7 -50 c7 -49 40 -94 71 -96 7 0 23 -2 37 -4 34 -4 104 28 159 73
160 129 329 356 449 602 86 178 99 346 29 406 -107 93 -269 54 -466 -111 -84
-71 -263 -259 -335 -353 -11 -15 -23 -29 -26 -32 -4 -3 -37 -43 -76 -90 -38
-47 -73 -90 -79 -96 -5 -6 -39 -45 -75 -88 -35 -42 -68 -76 -72 -76 -5 0 -8
-4 -8 -10 0 -5 -8 -18 -17 -28 -16 -16 -86 -94 -172 -190 -203 -229 -841 -882
-1001 -1025 -36 -32 -76 -69 -90 -81 -48 -44 -229 -174 -314 -226 -136 -81
-238 -110 -294 -83 -28 14 -37 28 -50 78 -8 33 -8 208 -1 240 8 33 30 140 31
152 2 19 42 157 74 253 40 119 98 265 156 390 21 47 38 85 36 86 -2 0 2 7 8
15 6 8 28 46 49 84 54 101 177 308 192 323 7 7 13 17 13 22 0 5 6 15 13 22 6
7 25 33 42 58 16 25 32 47 35 50 3 3 28 37 55 75 27 39 65 90 84 115 20 24 43
53 51 64 8 10 22 26 30 35 8 9 27 32 42 51 15 19 37 47 50 61 13 14 46 52 73
84 70 80 248 259 325 327 159 139 244 187 298 167 73 -27 59 -223 -33 -444 -7
-16 -21 -51 -31 -77 -11 -27 -22 -48 -26 -48 -5 0 -8 -5 -8 -11 0 -34 -134
-262 -271 -459 -107 -154 -237 -299 -297 -332 -21 -11 -26 -10 -38 7 -9 13
-11 22 -4 29 5 5 10 18 10 28 0 10 4 18 8 18 5 0 14 10 19 23 6 12 48 74 93
137 114 160 127 196 90 242 -36 46 -140 78 -160 50 -3 -5 -16 -15 -29 -24 -13
-9 -56 -61 -97 -115 -41 -54 -77 -102 -82 -108 -4 -5 -32 -51 -61 -102 -125
-218 -163 -402 -103 -510 38 -68 153 -89 245 -44 26 13 53 28 60 35 7 6 29 24
50 39 61 46 168 156 292 300 128 150 326 456 435 676 51 102 127 288 135 331
2 8 8 33 14 55 59 222 2 433 -134 489 -46 20 -133 26 -195 14z m1417 -650 c10
-25 8 -82 -5 -113 -28 -67 -101 -207 -129 -247 -18 -27 -31 -48 -28 -48 3 0
-3 -8 -12 -18 -10 -10 -25 -29 -33 -42 -24 -37 -62 -82 -100 -120 -84 -85
-144 -93 -150 -20 -1 14 -1 27 0 30 1 3 4 16 6 29 5 26 70 166 86 185 5 6 39
57 76 113 151 228 258 321 289 251z"/>
<path d="M8104 11169 c-30 -9 -67 -44 -169 -163 -27 -32 -54 -64 -60 -70 -5
-6 -37 -43 -70 -81 -33 -39 -62 -72 -65 -75 -3 -3 -34 -39 -70 -80 -96 -110
-131 -149 -172 -192 -21 -21 -38 -40 -38 -43 0 -3 -21 -28 -47 -55 -27 -27
-104 -108 -173 -181 -177 -187 -230 -240 -254 -249 -81 -30 -47 84 97 323 39
66 83 138 96 160 13 23 40 66 60 97 20 30 38 60 41 65 10 20 123 210 140 235
26 39 43 109 34 142 -7 25 -79 79 -111 82 -31 4 -88 -16 -115 -41 -10 -9 -18
-12 -18 -7 0 5 -4 4 -8 -2 -4 -5 -29 -25 -57 -44 -66 -46 -135 -116 -135 -138
0 -10 8 -29 17 -42 10 -14 18 -31 20 -38 2 -18 -17 -71 -61 -165 -20 -43 -36
-80 -36 -82 0 -4 -38 -86 -117 -255 -19 -41 -36 -79 -38 -85 -1 -5 -8 -23 -15
-40 -7 -16 -14 -32 -15 -35 -1 -3 -6 -16 -12 -30 -16 -38 -42 -116 -47 -142
-3 -13 -8 -34 -11 -48 -3 -14 -6 -50 -7 -82 -1 -43 4 -62 21 -83 11 -15 21
-33 21 -40 0 -20 35 -54 71 -68 45 -18 91 -13 153 18 46 23 62 34 123 86 48
41 298 315 383 419 18 22 42 50 53 63 12 13 42 46 66 73 25 27 42 42 38 33
-40 -110 -87 -249 -90 -270 -3 -14 -13 -48 -22 -74 -24 -71 -30 -118 -29 -225
1 -121 5 -141 41 -220 40 -86 99 -146 153 -156 42 -9 53 18 34 87 -27 100 -19
181 34 344 14 44 25 83 24 88 -1 4 3 7 8 7 6 0 10 6 10 14 0 7 9 35 21 62 40
95 262 539 271 542 4 2 8 10 8 19 0 8 14 34 30 58 17 24 30 46 30 49 0 4 16
29 35 56 19 27 35 52 35 55 0 3 5 11 11 18 39 45 118 162 125 185 16 57 -8 93
-111 166 -83 60 -95 64 -131 55z"/>
<path d="M13428 8225 c-1 -2 -23 -6 -48 -9 -63 -8 -136 -28 -165 -45 -5 -3
-15 -6 -20 -7 -20 -3 -101 -63 -148 -109 -64 -64 -139 -195 -153 -270 -2 -11
-8 -41 -12 -67 -11 -58 -7 -217 6 -278 50 -222 213 -389 424 -436 64 -14 90
-17 173 -17 83 0 106 2 173 17 60 13 152 53 164 70 4 6 8 8 8 4 0 -9 10 0 88
75 41 40 112 148 112 170 0 3 -48 29 -107 58 -69 33 -108 48 -111 40 -2 -6
-21 -34 -43 -61 -136 -172 -431 -168 -565 8 -35 46 -81 173 -70 191 4 5 2 12
-3 15 -6 4 -6 18 -1 35 4 16 6 32 3 35 -10 9 19 111 44 155 32 55 91 121 109
121 8 0 14 3 14 8 0 6 52 34 70 38 3 0 23 4 45 9 100 21 227 -6 297 -63 32
-26 78 -76 78 -85 0 -4 17 2 37 13 21 11 43 20 50 20 6 0 13 3 15 8 2 4 29 19
61 35 l58 27 -31 44 c-49 73 -115 129 -203 176 -45 24 -84 43 -87 42 -3 -1
-23 4 -45 10 -22 6 -60 12 -85 14 -24 2 -63 5 -86 8 -23 2 -44 3 -46 1z"/>
<path d="M2625 8202 c-11 -8 -14 -1159 -3 -1177 10 -16 616 -12 646 4 12 6 22
9 22 6 0 -12 97 45 131 76 44 42 79 92 79 113 0 9 4 16 8 16 5 0 9 6 9 13 1 6
5 33 10 58 30 147 -39 316 -153 374 -22 11 -42 25 -46 30 -4 6 -8 7 -8 3 0 -4
-15 -2 -32 4 -18 5 -120 11 -227 12 -173 2 -195 4 -200 19 -4 10 -6 61 -5 115
l1 97 259 2 c142 1 268 2 279 2 20 1 21 7 19 114 0 61 -2 115 -3 119 -1 9
-773 10 -786 0z m595 -703 c0 -5 6 -9 14 -9 21 0 56 -62 60 -106 4 -44 -20
-98 -56 -129 -21 -18 -40 -20 -200 -22 -138 -3 -178 0 -179 9 -3 40 -4 254 -1
261 5 11 362 7 362 -4z"/>
<path d="M6600 8202 l-176 -2 1 -597 0 -596 100 0 c55 1 109 2 120 2 20 1 20
7 20 479 l0 477 220 2 c121 1 227 2 235 2 13 1 16 19 15 114 l0 112 -180 5
c-99 3 -259 4 -355 2z"/>
<path d="M7660 8157 c-12 -28 -23 -56 -25 -62 -2 -11 -4 -16 -46 -120 -15 -38
-29 -77 -31 -85 -2 -8 -5 -17 -9 -20 -3 -3 -20 -45 -38 -95 -19 -49 -38 -101
-44 -115 -6 -14 -11 -27 -12 -30 -1 -3 -5 -14 -10 -25 -5 -11 -48 -123 -97
-250 -49 -126 -96 -244 -104 -261 -7 -18 -15 -42 -16 -55 -3 -23 -3 -23 119
-24 l123 0 26 65 c14 36 28 72 30 80 2 8 12 38 21 66 l18 51 48 2 c26 1 57 2
70 2 12 0 51 0 87 0 36 0 72 0 80 0 8 -1 46 -1 83 -1 64 -1 68 -2 78 -28 6
-15 18 -43 27 -62 9 -19 17 -37 18 -40 0 -3 5 -16 11 -30 6 -14 18 -42 26 -62
9 -21 20 -39 24 -39 4 -1 63 -2 129 -3 l122 -1 -28 75 c-37 100 -129 340 -139
365 -10 21 -21 52 -81 210 -21 55 -44 114 -50 130 -7 17 -14 35 -15 40 -3 10
-88 235 -124 325 l-17 45 -116 2 -116 2 -22 -52z m150 -374 c11 -32 24 -67 29
-78 5 -11 13 -31 19 -45 5 -14 21 -53 35 -87 15 -34 23 -64 19 -66 -4 -2 -61
-3 -127 -2 -138 1 -131 -7 -90 100 15 39 27 76 28 83 0 6 3 12 7 12 4 0 7 6 7
13 0 13 44 127 49 127 1 0 12 -26 24 -57z"/>
<path d="M9176 8203 c-1 -1 -61 -3 -134 -4 -192 -2 -261 -22 -340 -99 -161
-158 -140 -446 42 -574 19 -13 19 -14 -6 -57 -14 -24 -36 -78 -48 -119 -24
-79 -56 -119 -97 -121 -13 -1 -27 -3 -33 -4 -5 -1 -13 -3 -18 -4 -9 -1 -8
-203 1 -219 4 -6 13 -9 20 -7 7 2 55 6 107 9 143 7 180 32 224 154 14 39 23
72 20 72 -4 0 -2 6 3 13 6 6 13 28 17 47 4 19 17 55 29 80 33 67 77 86 198 85
l94 0 0 -225 0 -225 40 -5 c22 -3 78 -3 125 0 l85 5 0 595 0 595 -163 5 c-90
3 -165 4 -166 3z m95 -252 c3 -67 0 -241 -4 -248 -5 -8 -304 -8 -339 -1 -37 8
-77 48 -87 86 -8 32 -9 48 -2 97 2 17 45 60 71 71 14 6 96 11 192 11 148 0
168 -2 169 -16z"/>
<path d="M14686 8202 l-408 -2 4 -40 c2 -22 1 -40 -2 -40 -6 0 -1 -142 5 -149
3 -2 82 -4 177 -5 l173 -1 2 -463 c0 -254 3 -468 6 -475 3 -9 35 -12 116 -11
61 0 114 3 117 6 8 9 10 89 2 94 -4 3 -3 16 2 29 6 15 6 27 -1 30 -5 4 -7 11
-3 16 7 13 9 253 1 265 -3 6 -2 16 3 23 4 8 4 26 0 42 -5 15 -6 30 -3 33 8 8
9 136 1 149 -3 6 -2 19 3 28 6 11 5 20 -1 24 -6 4 -7 13 -1 24 5 9 6 23 1 31
-4 7 -4 24 0 36 6 14 5 26 0 29 -6 4 -7 13 -1 24 5 9 6 23 1 31 -20 32 -1 36
175 37 96 1 178 4 182 6 9 5 7 101 -2 124 -2 7 0 15 6 18 5 4 6 11 3 17 -4 6
-7 24 -6 39 0 16 -2 29 -6 30 -44 3 -205 4 -546 1z"/>
<path d="M15528 8202 l-57 -3 0 -594 c0 -454 3 -595 12 -596 46 -3 587 0 607
4 51 10 110 30 110 39 0 4 6 8 14 8 19 0 109 88 129 127 30 57 44 109 46 174
2 64 -14 155 -30 174 -5 5 -9 17 -9 27 0 10 -4 18 -8 18 -5 0 -15 12 -23 26
-20 38 -91 90 -157 115 -50 18 -80 21 -252 23 l-195 2 -2 165 c-1 90 -2 192
-3 226 l0 61 -62 4 c-35 1 -89 2 -120 0z m542 -687 c45 -23 72 -61 77 -109 7
-56 0 -85 -29 -119 -36 -40 -64 -46 -239 -44 l-164 2 -2 141 -3 142 168 0
c116 0 175 -4 192 -13z"/>
<path d="M3949 8198 c-1 -2 -3 -151 -5 -333 -3 -322 -6 -389 -19 -450 -10 -45
-39 -107 -66 -137 -22 -25 -74 -53 -91 -50 -5 1 -8 -2 -8 -6 0 -4 -12 -8 -27
-7 l-28 0 0 -105 0 -105 35 -3 c19 -1 42 -3 50 -3 41 -3 107 12 155 36 110 53
189 177 211 330 13 88 16 130 18 350 l3 240 50 1 c28 1 58 4 67 7 8 3 18 2 21
-4 4 -5 10 -7 14 -5 8 5 78 7 149 5 l42 -2 0 -46 c-1 -25 1 -57 3 -71 2 -14 1
-29 -2 -34 -7 -15 -7 -89 0 -106 4 -8 4 -34 0 -57 -5 -22 -4 -48 1 -56 5 -9 4
-18 -1 -22 -6 -3 -7 -15 -2 -27 4 -12 5 -38 1 -59 -4 -21 -4 -43 1 -50 4 -7 5
-18 2 -23 -9 -14 -10 -88 -2 -106 4 -8 4 -34 0 -57 -5 -22 -4 -48 1 -56 4 -9
5 -18 1 -20 -5 -3 -7 -29 -5 -59 1 -29 2 -63 2 -75 0 -15 6 -23 18 -24 20 -1
177 -1 209 0 l22 1 -2 593 -2 592 -407 3 c-225 1 -409 1 -409 0z"/>
<path d="M5440 8187 c0 -8 -8 -32 -17 -53 -9 -22 -17 -41 -18 -44 -1 -3 -5
-14 -10 -25 -4 -11 -28 -72 -52 -135 -25 -63 -60 -153 -78 -200 -18 -47 -63
-161 -99 -255 -37 -93 -70 -179 -75 -190 -38 -86 -102 -267 -97 -272 5 -5 148
-7 231 -3 15 0 25 16 43 68 13 37 31 88 40 113 l17 47 230 1 230 2 18 -48 c33
-84 69 -168 77 -177 5 -5 59 -8 122 -8 149 0 142 0 130 15 -5 6 -13 23 -17 37
-4 14 -23 66 -43 115 -19 50 -35 96 -35 103 0 6 -5 12 -10 12 -6 0 -7 3 -4 7
4 3 3 11 -1 17 -5 6 -17 34 -27 61 -22 62 -83 223 -95 250 -10 24 -22 57 -25
68 -2 4 -4 9 -5 12 -1 3 -3 8 -5 13 -1 4 -7 21 -14 37 -7 17 -37 95 -67 175
-30 80 -66 172 -78 205 l-24 60 -121 3 c-99 2 -121 0 -121 -11z m143 -372 c1
-11 5 -25 9 -30 4 -6 17 -40 29 -75 12 -36 26 -76 32 -90 6 -14 11 -27 12 -30
7 -30 30 -88 38 -98 5 -7 7 -16 3 -20 -12 -11 -276 -9 -276 3 0 5 11 39 24 75
112 305 120 322 129 265z"/>
<path d="M10472 7605 l-1 -595 42 -1 c143 -3 586 1 623 6 208 28 322 151 325
351 2 128 -43 210 -160 290 -2 2 8 14 22 28 49 49 72 113 72 207 0 77 -3 92
-33 150 -24 48 -44 72 -80 96 -86 58 -118 62 -481 63 l-329 0 0 -595z m617
370 c65 -21 95 -101 65 -173 -22 -54 -62 -64 -260 -66 l-172 -1 -1 122 c0 107
2 122 17 125 34 7 328 1 351 -7z m37 -472 c53 -18 85 -74 79 -139 -4 -52 -17
-76 -52 -100 -25 -16 -49 -18 -223 -16 -107 1 -200 2 -206 2 -8 0 -12 41 -12
135 l0 135 186 -1 c134 -1 197 -5 228 -16z"/>
<path d="M11737 8193 c-7 -15 -2 -1172 6 -1179 5 -5 826 -10 867 -5 3 1 6 55
6 121 l0 119 -314 -1 c-172 0 -316 2 -319 6 -9 8 -10 234 -2 247 4 7 100 11
277 11 l271 -1 -2 117 -2 117 -272 0 c-314 0 -279 -17 -278 130 l1 90 279 2
c154 1 291 2 305 2 l26 1 -1 115 0 115 -422 0 c-232 0 -424 -3 -426 -7z"/>
<path d="M9138 6159 c-70 -19 -130 -83 -147 -158 -29 -128 58 -232 201 -241 8
0 4 -27 -6 -37 -4 -4 -14 -21 -22 -38 -8 -16 -30 -57 -49 -90 -19 -33 -35 -63
-35 -67 0 -5 27 -8 59 -8 58 0 60 1 82 38 21 36 56 99 95 172 11 19 22 37 25
40 20 16 72 147 74 185 7 136 -137 242 -277 204z m104 -101 c96 -46 49 -207
-55 -191 -40 6 -74 39 -80 78 -12 91 57 149 135 113z"/>
<path d="M10275 6129 c-14 -22 -31 -52 -38 -67 -6 -15 -14 -29 -18 -32 -6 -5
-91 -157 -98 -175 -2 -5 -9 -16 -14 -24 -15 -18 -18 -36 -22 -104 -3 -71 22
-127 78 -171 36 -28 46 -31 125 -34 80 -3 90 -1 127 23 66 43 90 88 92 172 2
67 -1 76 -30 120 -35 51 -83 81 -143 88 -21 3 -39 7 -40 8 -2 1 15 34 38 72
45 78 88 156 88 161 0 2 -27 4 -60 4 -59 0 -60 -1 -85 -41z m67 -313 c40 -30
52 -108 23 -152 -31 -47 -120 -47 -151 1 -32 48 -20 129 23 154 22 13 86 11
105 -3z"/>
<path d="M8613 6120 c-34 -22 -66 -40 -71 -40 -22 0 -45 -43 -47 -87 -1 -27 0
-51 2 -55 4 -8 32 6 72 35 13 9 29 17 35 17 8 0 11 -67 11 -235 l0 -235 56 0
57 0 -2 318 -1 317 -25 3 c-15 1 -49 -13 -87 -38z"/>
<path d="M9716 6110 c-43 -27 -84 -51 -89 -53 -6 -2 -11 -31 -12 -64 -2 -68
-1 -69 67 -26 21 13 41 23 45 23 5 0 8 -105 8 -232 l0 -233 56 -3 56 -3 1 321
0 320 -26 0 c-15 -1 -63 -23 -106 -50z"/>
</g>
</svg>
