<svg id="Layer_1" xmlns="http://www.w3.org/2000/svg" viewBox="0 0 148 62"><style>.st0{fill:#FFFFFF;} .st1{fill:#FAA924;}</style><path class="st0" d="M101.7 20.9c.7-.6.5-1 .2-1.2-.5-.3-1.2-.7-2-1-.8-.3-.7.5-.8.7-.3.3-1.2 1.8-3.7 4.8-2.2 2.6-4.1 4-4.3 3.6-.1-.1.3-1.1.7-2.1.7-1.4 2.3-5 3-5.8.5-.6 0-1.1-.4-1.4-.4-.3-.8.2-.8.2l-.1.1c-.4.4-2.8 3.3-5.9 6.5-3.5 3.7-5.5 4.7-6.1 4.3-.7-.4.2-4.3 2.7-7.9 0 0-.3 1.2.8 1.3 1 .1 3-2.1 4.2-4.3 1.3-2.2 1.4-3.6.7-4.2-.5-.5-2.3-1.3-6.4 3.9-3.6 4.4-7.3 8.2-10.8 11.6-2.2 2.2-5.2 4.3-6.3 3.8-1.3-.7.2-6.6 3.1-11.5s7.8-9.8 9-9.9c1.2-.1.7 3-1.5 6.5-1.9 3.1-3.3 4.5-3.7 4.3-.4-.2.3-.9.6-1.5.6-1 1.5-1.7 1-2.3-.1-.2-.4-.3-.7-.4-.6-.2-1.2.9-1.6 1.3-.6.7-2 2.9-2 4.5.1 1.5 1.2 1.6 1.7 1.4.9-.2 3.6-2.5 6.2-7 2.7-4.7 2.3-7.3.9-8-1.8-.9-7.6 1.4-13 10.9-3.3 5.7-3.2 9-2.7 11.1.4 1.7 1.9 2.5 3.2 2.5 1.2 0 4-2 6.7-4.6 2.2-2.2 4.6-4.5 6.5-6.7-1.1 2.9-1.2 6.3 1.1 6.7.9.2 2.2-.5 3.7-1.7 2-1.6 4.5-4.2 6.7-6.7-.2.4-.9 1.8-1.1 2.1-.7 1.5-1.9 3.5-.8 4.6 0 0 .4.6 1.2.7 1.1.2 2.8-2.3 3.9-3.6 0 0-1.5 4.2.6 5.5.5.3 1-.5.6-.5s-.7-.9.8-4.1c1.7-3.2 4.2-5.9 4.9-6.5zm-14.9-3c.9-1.3 1.7-2.2 2-1.9.2.2.4.7-.7 2.5-1.4 2.3-2.4 3.1-2.7 2.5-.2-.4.4-1.6 1.4-3.1zM64.3 20.6c.6-.8.7-1.1-.2-1.7-1-.6-1-1-1.8-.3 0 0-3.4 4-5.5 6.2s-2.6 2.9-3 2.7c-.3-.2.4-1.8 1.9-4 .5-.8 1.2-1.9 1.5-2.5.6-1 .7-1.4.3-1.8-.3-.3-.7-.5-1.2-.2-.9.5-2.4 1.6-2 1.9.5.4.3.5-1.2 3.8-.6 1.3-2 4.2-1.1 4.8 0 0 .2 1 1.3.8 1.2-.2 2.5-1.9 3.8-3.3.8-1 2-2.3 2-2.3s-.7 1.8-1 3.3c-.3 1.4-.2 3.4 1.3 4.2.4.1.5-.1.3-1-.1-.4-.4-1.7 2.3-6.9.8-1.6 1.5-2.6 2.3-3.7zM55.1 10.2c-1.1-.2-1.9 1-1.9 1S48.5 17 42.9 22.9c-4.8 5.1-6.9 7-7.2 6.8-.5-.3 1.3-4.8 4.3-10.7 3-5.9 8.6-14.8 9.1-15.5.7-1.1.3-1.5-.6-2.1-.6-.4-.6 0-1.1.8-.2.3-.8 1.1-2.3 3.6-1 1.4-2.7 3.6-4.1 5.1-3.4 3.7-6.7 7-9.9 9.7-8.1 6.9-14.6 10.6-17.3 12-4.1 2.1-7.4 3-9.6 3.1-2.4.1-1.9-.8-2.6-2.1-.8-1.2-1.6-.9-1.6-.9 0 3.7 2.5 5 4.7 5.4 4.7.4 11.9-2.9 19.2-8.3l.9-.6c10-7.8 12.8-11.8 15.1-14.4.1-.1.2 0 .1.1-3.5 6.9-6.2 13-6.5 14.3-.3 1.3.5 2.5 1 2.8.8.5 1.3.1 2.9-1.3 3.4-3.1 8.8-8.9 10.1-10.3.5-.5.8-.9 1-1 .4-.2-.2.7-.6 1.7-1.2 2.5-3.7 8.6-3.9 9.8-.3 1.7.1 2.6.7 3.1.7.4.8.1.7-.3-.2-.5 3.2-8.1 5.1-11.7 1.9-3.6 4.8-8 6.1-9.6 1.3-1.6-.4-2-1.5-2.2zM147.4 18.5c-.6-.5-.5-1.1-2.9-.6-2.5.6-11.5 2.6-22.5 8.1-5.7 2.9-9.5 5-11.5 6-.9.4 3.3-5.5 3.3-5.5 2.3-3.4 2.4-4.9-.5-6.2-.2-.1-.3-.1-.5-.2.4-.6 2.3-3.8 3.3-5.8.9-1.9 1-3.1.4-3.7-.6-.5-2-.3-4.9 2.5-2.8 2.6-3.5 4.1-3.4 5.3.1 1.1.8 1.7 1.9 2.1.2.1.5.1.6.2-1.1 1.8-1.4 2.2-2.7 3.8-3.3 4.1-6 5.9-6.4 5.9-.7-.1-.7-.9-.4-1.8.4-.8 1-1.9 1.6-2.5.5-.6.4-1-.3-1.2-.3-.1-1.3-.5-2 .3-.7.9-1.4 1.8-1.5 3.6-.1 1.7.8 2.5 2.4 2.8 1.2.2 3.9-1.8 7.5-6.3 1.3-1.6 2-2.7 2.9-4 .4.2.6.4.6.4.9.7 1.6 1.3.1 3.7-.2.4-.6.8-.8 1.1-.1.1-.1.2-.2.3-3.4 4.5-4.2 5.7-4.7 6.8-.3.9.3 1.3.5 1.7.5.7 1.3.9 2.2.3 1.2-.8 13.5-8.2 26.4-13 6.2-2.3 9.2-3.1 10.4-3.3 1.1-.1 1.5-.4 1.1-.8zm-36.1 1c-.2-.1-.1-.1-.3-.1-1.4-.5-1-1.5-.1-2.6 1.6-2 2.5-2.7 2.9-2.7h.1c.4.2-.3 1.2-.9 2.3-.3.9-.9 2-1.7 3.1z"/><g><path class="st0" d="M85.8 41.2c1.6 0 2.6 1 2.6 2.4 0 .9-.4 1.4-.8 1.8.8.4 1.3 1.1 1.3 2.2 0 1.7-1.1 2.8-3.2 2.8h-4.5v-9.2h4.6zm-.4 3.6c.6 0 1.1-.3 1.1-.9 0-.7-.4-1-1-1H83v1.9h2.4zm.2 3.9c.8 0 1.3-.3 1.3-1 0-.8-.5-1.1-1.2-1.1H83v2.1h2.6zM97.8 48.6v1.8H91v-9.2h6.6V43h-4.7v1.7h4.3v1.8h-4.3v2.1h4.9zM115.3 43v7.4h-1.9V43h-2.8v-1.8h7.4V43h-2.7zM124.2 44.7h-2.5v-3.5h-1.9v9.2h4.3c1.7 0 2.9-1.3 2.9-2.9.1-1.5-1-2.8-2.8-2.8zm-.1 4h-2.4v-2.2h2.4c.7 0 1.1.5 1.1 1.1 0 .5-.3 1.1-1.1 1.1zM107 47.2c-.1.2-.3.6-.6.8-.5.5-1.1.7-1.9.7-1.9 0-2.9-1.3-2.9-2.9 0-1.6 1.1-2.9 2.8-2.9.6 0 1 .1 1.5.4.5.3.9.8.9.8l1.7-.8c-.1-.2-.4-.7-.8-1.1-.2-.1-.5-.4-.5-.4-.8-.5-1.7-.8-2.8-.8-2.8 0-4.7 2.1-4.7 4.8 0 2.6 1.7 4.7 4.8 4.7 1.4 0 2.5-.5 3.3-1.3.4-.4.7-.9.9-1.4l-1.7-.6z"/><g><path class="st0" d="M58.7 48.4l-.8 2.1h-2l3.6-9.2h1.8l3.5 9.2h-2l-.8-2.1h-3.3zm1.6-4.4l-1 2.7h2l-1-2.7zM51.7 43v7.4h-1.9v-9.2h5.5V43h-3.6zM24.6 44.8h-2.5V43h4.3v-1.8h-6.2v9.2h4.3c1.7 0 2.8-1.2 2.8-2.8.1-1.6-.9-2.8-2.7-2.8zm-.1 3.9h-2.4v-2.2h2.4c.7 0 1.1.5 1.1 1.1 0 .6-.3 1.1-1.1 1.1zM30.6 41.2v4.7c0 2.7-1.2 2.9-1.8 2.9h-.1v1.7h.8c1.1 0 1.9-.6 2.4-1.5.5-.8.5-3 .5-3v-3h2.7v7.4H37v-9.2h-6.4zM69.4 41.2c-1.7 0-2.8 1.2-2.8 2.8 0 1.1.5 2 1.4 2.5-.3.3-.5.7-.6 1.3-.2.7-.3.9-1 .9h-.1v1.7h.6c1.2 0 1.9-.1 2.2-1.3 0 0 .2-.6.2-.9.2-.7.4-1.4 1.3-1.4h1.3v3.6h1.9v-9.2h-4.4zm2.5 3.9h-2.4c-.7 0-1.1-.5-1.1-1.1 0-.5.3-1.1 1.1-1.1h2.4v2.2zM45.6 50.4h2l-3.5-9.2h-1.8l-3.6 9.2h2l.7-1.8h3.5l.7 1.8zM42 46.9l1.1-3 1.1 2.9v.1H42z"/></g></g><g><path class="st1" d="M65.8 58.8v-1l1.4-.8h.4v4.9h-.9v-3.7l-.9.6zM71.3 57c.9 0 1.6.7 1.6 1.6 0 .3-.1.6-.2.9L71.3 62h-1l1.1-1.8h-.1c-.9 0-1.6-.6-1.6-1.6s.7-1.6 1.6-1.6zm0 2.4c.4 0 .8-.3.8-.8s-.3-.8-.8-.8c-.4 0-.8.3-.8.8s.4.8.8.8zM74.5 58.8v-1L76 57h.4v4.9h-.9v-3.7l-1 .6zM78.3 59.5l1.4-2.6h1l-1.1 1.8h.1c.9 0 1.6.6 1.6 1.6 0 .9-.7 1.6-1.6 1.6-.9 0-1.6-.7-1.6-1.6 0-.2.1-.5.2-.8zm1.5 1.7c.4 0 .8-.3.8-.8s-.3-.8-.8-.8c-.4 0-.8.3-.8.8s.3.8.8.8z"/></g><g><path class="st1" d="M58.3 4.8V.1h.9V4h1.7V.1h.9V4h.5l-.1 1.7h-.8v-.9h-3.1zM63.9 4.8V.1h3v.8h-2.1v1h1.7v.8h-1.7V4h2.1v.8h-3zM68.7 4.8V.1h1.8c1 0 1.5.6 1.5 1.5S71.5 3 70.5 3h-.9v1.9h-.9zm.8-2.7h.9c.4 0 .6-.2.6-.6s-.2-.6-.6-.6h-.9v1.2zM73.5 4.8V.1h.9v1.8L76 .1h1.1l-1.9 2.1 2.1 2.6h-1.1l-1.7-2.3v2.3h-1zM80.3 0c1.2 0 2.3.8 2.3 2.4 0 1.7-1 2.5-2.3 2.5-1.2 0-2.3-.8-2.3-2.5C78 .8 79.1 0 80.3 0zm0 4.1c.7 0 1.4-.5 1.4-1.6S81.1.9 80.3.9c-.7 0-1.4.5-1.4 1.6s.7 1.6 1.4 1.6zM84.3 4.8V.1h1.8c.8 0 1.4.4 1.4 1.3 0 .4-.2.7-.5.9.5.2.7.6.7 1.2 0 .9-.6 1.4-1.6 1.4h-1.8zm.9-2.9h.8c.4 0 .6-.1.6-.5s-.2-.5-.6-.5h-.8v1zm0 2.1h.8c.6 0 .8-.2.8-.6 0-.4-.2-.6-.8-.6h-.8V4zM89.4 4.8V.1h.9V2h.9c1 0 1.6.5 1.6 1.5S92.2 5 91.2 5h-1.8zm.9-.8h.8c.6 0 .8-.2.8-.6 0-.4-.2-.6-.8-.6h-.8V4z"/></g></svg>