<?xml version="1.0" encoding="utf-8"?>
<!-- Generator: Adobe Illustrator 19.2.1, SVG Export Plug-In . SVG Version: 6.00 Build 0)  -->
<svg version="1.1" id="Layer_1" opacity="0.2" xmlns="http://www.w3.org/2000/svg" xmlns:xlink="http://www.w3.org/1999/xlink"
	 x="0px" y="0px" viewBox="0 0 228 205" style="enable-background:new 0 0 228 205;" xml:space="preserve">
<style type="text/css">
	.st0{fill:#FFFFFF;}
</style>
<g>
	<path class="st0" d="M64.8,40c10.9,0,19.9-8.9,19.9-19.9S75.7,0.3,64.8,0.3S44.9,9.2,44.9,20.1S53.8,40,64.8,40z M64.8,11.5
		c4.8,0,8.6,3.9,8.6,8.6s-3.9,8.6-8.6,8.6c-4.8,0-8.6-3.9-8.6-8.6S60,11.5,64.8,11.5z"/>
	<path class="st0" d="M162.7,39.7c10.9,0,19.9-8.9,19.9-19.9c0-10.9-8.9-19.9-19.9-19.9c-10.9,0-19.9,8.9-19.9,19.9
		C142.8,30.8,151.7,39.7,162.7,39.7z M162.7,11.2c4.8,0,8.6,3.9,8.6,8.6c0,4.8-3.9,8.7-8.6,8.7c-4.8,0-8.6-3.9-8.6-8.7
		C154,15.1,157.9,11.2,162.7,11.2z"/>
	<path class="st0" d="M225,97.9l-35.7-45.6l-0.2-0.3c-0.5-0.6-5.4-5.8-12.3-5.8l-26.9,0c-7.3,0-12.4,5.5-13.1,6.3l-23.1,27
		L88.7,52.4c-0.6-0.6-5.7-6.1-13-6.1l-23.9,0c-6.9,0-11.8,5.2-12.3,5.8L3,97.9c-4.7,5.9-3.7,14.6,2.2,19.3c2.9,2.3,6.4,3.3,10.1,2.9
		c3.6-0.4,6.9-2.2,9.2-5.1l11.7-14.8l-9.6,37.4h14.6v52.1c0,8.3,6.2,14.5,14.5,14.5c3.5,0,6.5-1.1,9-2.9c2.5,1.8,5.5,2.8,8.9,2.8
		c8.3,0,14.5-6.2,14.5-14.5v-52.1h14.5l-9.6-37.4l10.2,12.8c0.7,0.8,1.4,1.6,2.3,2.3c3.9,3.1,7.5,3.4,9.9,3c2.2-0.3,5.5-1.5,8.7-5.4
		l15.2-20v96.9c0,8.2,6.2,14.4,14.5,14.4c3.5,0,6.4-1.1,8.8-2.9c2.4,1.9,5.4,3,8.6,3c0.5,0,1,0,1.5-0.1c7.5-0.7,13.5-7.6,13.5-15.4
		l0-96.3l17.6,22.4c2.3,2.9,5.5,4.7,9.2,5.1c3.7,0.4,7.2-0.6,10.1-2.9C228.7,112.5,229.7,103.8,225,97.9z M216.8,106.7
		c0,0.4-0.2,1.1-0.9,1.7c-1.1,0.9-2.7,0.7-3.5-0.4l-29.5-37.6h-8.1v118.3c0,1.9-1.7,4.1-3.4,4.2c-0.9,0.1-1.6-0.1-2.1-0.6
		c-0.7-0.6-1-1.5-1-2.6h0c0-0.2,0-0.3,0-0.5v-66.2h-11.2v66.2c0,0.1,0,3.6-3.3,3.6c-2.1,0-3.3-1.2-3.3-3.2V70.7H145l-30,35.4
		c-0.7,0.9-1.3,1.2-1.4,1.2c0,0-0.5-0.1-1.3-0.7c-0.2-0.2-0.4-0.3-0.5-0.5L80.3,70.5h-7l14.7,56H76.8v63.3c0,1.2-0.4,3.3-3.3,3.3
		c-1.1,0-1.9-0.3-2.5-0.9c-0.6-0.7-0.8-1.6-0.7-2.3l-0.1-63l-11.2,0l0.1,62.8c0,0,0,0,0,0l-0.1,0c0,0.8,0,3.3-3.3,3.3
		c-2.1,0-3.3-1.2-3.3-3.3v-63.3H41l14.4-56h-8.6l-1.2,0L15.7,108c-0.9,1.1-2.4,1.3-3.5,0.4c-0.7-0.6-0.9-1.3-0.9-1.7
		c0-0.4,0-1.1,0.5-1.9l36.1-45.4c0.7-0.7,2.4-2,3.9-2l1.3,0l0.1-0.1h20.5l0.1,0.1l2,0c2,0,4.1,1.8,4.7,2.5l33.7,36.4l31.1-36.5
		c0.6-0.6,2.7-2.4,4.6-2.5l0.1-0.1h22l0.1,0.1l4.7,0c1.4,0,3.2,1.3,3.9,2l35.5,45.5C216.8,105.6,216.8,106.4,216.8,106.7z"/>
</g>
</svg>
