<?xml version="1.0" encoding="utf-8"?>
<!-- Generator: Adobe Illustrator 19.2.1, SVG Export Plug-In . SVG Version: 6.00 Build 0)  -->
<svg version="1.1" id="Layer_1" opacity="0.2" xmlns="http://www.w3.org/2000/svg" xmlns:xlink="http://www.w3.org/1999/xlink"
	 x="0px" y="0px" viewBox="0 0 140 232" style="enable-background:new 0 0 140 232;" xml:space="preserve">
<style type="text/css">
	.st0{fill:#FFFFFF;}
</style>
<path class="st0" d="M140,194.4l-9.3,0c-8.9-0.5-16-7.9-16-16.8c0-9.3,7.7-16.9,17.1-16.9h5.7v0h0l0-5.3v-6.4h0l0-105.8h-30.3V0
	l-8,3.3c-0.6,0.2-57.4,23.3-74.7,30.2l-0.4,0.1C16.3,36.7,0,43.1,0,66v111.6c0,0.2,0,0.4,0,0.6c0,0.2,0,0.5,0,0.7h0.1
	c0.7,14.3,11.8,25.8,26,27.1V232l23.5-13.6L73.1,232v-25.8l57.6-0.1c0.4,0,0.7,0.1,1,0.1v-0.1l8.3,0L140,194.4z M107.1,129.3V54.9
	h18.7l0,94.1H57.9L107.1,129.3z M28.4,44.4l0.4-0.1C42.1,39,79.1,24,95.5,17.3v104l-75.4,30.3l0,0c-3.1,1-5.9,2.4-8.4,4.3V66
	C11.6,51.1,20.9,47.4,28.4,44.4z M61.4,211.7l-11.9-6.9l-11.9,6.9v-28.3l23.7,0V211.7z M73.1,194.5v-22.8h-47v22.6
	c-8-1.2-14.1-7.9-14.4-16.1c0.3-7.5,5.6-13.8,12.7-15.7c0.1,0,0.3-0.1,0.4-0.2l4.1-1.6h79.8c-3.5,4.7-5.7,10.6-5.7,16.9
	c0,6.3,2.1,12.1,5.6,16.9L73.1,194.5z"/>
</svg>
