<svg id="Layer_1" xmlns="http://www.w3.org/2000/svg" viewBox="0 0 189 290"><style>.st0{opacity:0.25;fill:#FFFFFF;}</style><path class="st0" d="M168.1 236.7c-15 0-23 3.5-30.1 6.5-6.1 2.6-11.4 4.9-21.6 4.9h-21l6.9-40.1c5.7 6.7 13.9 12.5 29.2 12.5h9.9V206h-9.9c-13.3 0-17.3-5.8-22.9-13.8-5.9-8.6-13.3-19.2-32.6-19.2-13.4 0-20.4-7.4-23.9-13.7H103c11.9 0 16 3.3 21.3 7.5 5.6 4.4 12.5 9.8 27 9.8h31v-14.5h-31c-9.5 0-13.1-2.8-18-6.7-1.7-1.3-3.5-2.7-5.5-4.1 2.5-3.3 4-7.5 4-12 0-11.2-8.7-19.9-19.9-19.9H98.5c44.3-14.3 74.8-58.5 74.8-112.1V.1L165 0c-27.3 0-57.1 13.8-80 35.3 4-7.1 3.1-25.3 3.1-25.3h-7c-41.7 0-70.7 24-70.7 58.7 0 24.4 12.7 42.8 33.1 50.7H30.7c-11.1 0-19.9 8.7-19.9 19.9 0 7.3 3.7 13.5 9.4 17h-1.6C8.4 156.3 0 164.6 0 175c0 4.9 1.9 9.4 5 12.7-1.9 3-3.1 6.5-3.1 10.3 0 5.6 2.5 10.6 6.4 14.1-1.4 2.7-2.3 5.7-2.3 8.9 0 7.1 3.9 13.2 9.7 16.4-.7 2-1.2 4.2-1.2 6.5 0 10.4 8.5 18.8 18.8 18.8H49l4 27.2h35.3l4.7-27.3h23.5c13.2 0 20.7-3.2 27.3-6.1 6.3-2.7 12.3-5.3 24.3-5.3h20.7v-14.6h-20.7zM24.9 68.7c0-24.7 19.5-41 49-44.8-1.7 21.9-13.2 42-13.3 42.2L73.4 73c17.7-31.2 53.4-55.3 85.2-58.2-3 49.9-36.1 89-80.9 94.3H67.6c-25.9 0-42.7-15.9-42.7-40.4zm8.5 156.4c-.8 0-1.7.1-2.5.2h-6.1c-2.3 0-4.2-1.9-4.2-4.3 0-2.3 1.8-4.1 4-4.2h17.6l1.2 8.3h-10zm-8.6-22.9h-4c-2.4 0-4.3-1.9-4.3-4.3s1.9-4.3 4.3-4.3l18 .1 1.3 8.5H24.8zm5.9-68.3H112c3.1 0 5.3 2.2 5.3 5.4s-2.2 5.4-5.3 5.4H30.7c-3.1 0-5.3-2.2-5.3-5.4s2.2-5.4 5.3-5.4zm-12 36.9h16.7l1.2 8.3-17.9-.1c-2.3 0-4.1-1.9-4.1-4.1-.1-2.2 1.8-4.1 4.1-4.1zm14.7 77.4c-2.4 0-4.3-1.9-4.3-4.3 0-2 1.3-3.6 3.1-4.1h12.9v-.2h.4l1.3 8.6H33.4zm32.2 27.3l-14.2-95.6c6.2 4.6 14.3 7.7 24.8 7.7 6.8 0 10.9 1.8 14.2 4.8l-14.2 83H65.6z"/></svg>