<?xml version="1.0" encoding="utf-8"?>
<!-- Generator: Adobe Illustrator 19.2.1, SVG Export Plug-In . SVG Version: 6.00 Build 0)  -->
<svg version="1.1" id="Layer_1" opacity="0.2" xmlns="http://www.w3.org/2000/svg" xmlns:xlink="http://www.w3.org/1999/xlink"
	 x="0px" y="0px" viewBox="0 0 300 211" style="enable-background:new 0 0 300 211;" xml:space="preserve">
<style type="text/css">
	.st0{fill:#FFFFFF;}
</style>
<g>
	<path class="st0" d="M62.8,122.6l-1.2,13.6c11.6,1,28.9,11.9,28.9,37.8h13.7C104.3,142.7,83.4,124.4,62.8,122.6z"/>
	<path class="st0" d="M125.7,41c-1.5,0-2.9,0.2-4.3,0.5v-6.3c0-9.2-8-16.7-17.9-16.7c-1.5,0-2.9,0.2-4.2,0.5v-0.9
		c0-8.8-6.3-18.1-18-18.1C71.1,0,65.1,6.6,63.6,14.2c-1.5-0.4-3.1-0.6-4.7-0.6c-9.9,0-18,7.5-18,16.7v67.6l-7.6-11.8
		c-4.8-7.8-15.3-10.7-23.9-6.5c-4,1.9-7,5.6-8.4,10.4c-1.6,5.3-0.9,11,1.7,15.3c0.3,0.4,28,44.6,34.8,60.1
		c2.4,5.5,6.6,13.3,7.5,14.9c7.6,17.9,26.5,30,47.2,30c28.4,0,51.6-20.6,51.6-46V58.6C143.7,49.4,136.8,41,125.7,41z M92.1,196.6
		c-17.8,0-30.2-11-34.7-21.9l-0.3-0.7c0-0.1-4.7-8.7-7.2-14.2c-7.2-16.4-34.6-60-35.7-61.8c-0.5-0.8-0.7-2.5-0.2-4.3
		c0.3-1.1,0.8-1.8,1.2-2c2.4-1.2,5.4-0.2,6.5,1.5l20.3,31.3l12.6-3.7V30.3c0-1.4,1.8-3,4.3-3c2.6,0,4.3,1.6,4.3,3v68.4h13.7V30.3
		V18.1c0-4.4,3.3-4.4,4.3-4.4c4,0,4.3,3.4,4.3,4.4v80.6h13.7V64.5h0V35.2c0-1.6,2-3,4.2-3c2.3,0,4.2,1.4,4.2,3v63.5h13.7V57.4
		c0.2-1.3,1.9-2.7,4.3-2.7c3.6,0,4.3,2.5,4.3,3.9v105.7C130,182.1,113,196.6,92.1,196.6z"/>
	<path class="st0" d="M195.7,174.1h13.7c0-25.9,17.3-36.8,28.9-37.8l-1.2-13.6C216.6,124.4,195.7,142.7,195.7,174.1z"/>
	<path class="st0" d="M299.2,90c-1.4-4.8-4.4-8.5-8.4-10.4c-8.6-4.1-19.1-1.3-23.9,6.5l-7.6,11.8V30.3c0-9.2-8.1-16.7-18-16.7
		c-1.6,0-3.2,0.2-4.7,0.6C234.9,6.6,228.9,0,218.8,0c-11.7,0-18,9.3-18,18.1V19c-1.4-0.3-2.8-0.5-4.2-0.5c-9.9,0-17.9,7.5-17.9,16.7
		v6.3c-1.4-0.3-2.8-0.5-4.3-0.5c-11.1,0-18,8.4-18,17.6v105.7c0,25.4,23.1,46,51.6,46c20.7,0,39.7-12,47.2-30
		c0.9-1.7,5.1-9.4,7.5-14.9c6.8-15.5,34.5-59.6,34.8-60.1C300.1,101.1,300.7,95.3,299.2,90z M285.8,98.1
		c-1.1,1.8-28.5,45.4-35.7,61.8c-2.4,5.6-7.1,14.1-7.2,14.2l-0.3,0.7c-4.5,10.9-17,21.9-34.7,21.9c-20.9,0-37.9-14.5-37.9-32.3V58.6
		c0-1.4,0.7-3.9,4.3-3.9c2.4,0,4.1,1.4,4.3,2.7v41.3h13.7V35.2c0-1.6,2-3,4.2-3c2.3,0,4.2,1.4,4.2,3v29.3h0v34.2h13.7V18.1
		c0-1,0.3-4.4,4.3-4.4c1.1,0,4.3,0,4.3,4.4v12.2v68.4h13.7V30.3c0-1.4,1.8-3,4.3-3c2.6,0,4.3,1.6,4.3,3V121l12.6,3.7l20.3-31.3
		c1.1-1.7,4-2.7,6.5-1.5c0.4,0.2,0.9,0.9,1.2,2C286.5,95.6,286.3,97.4,285.8,98.1z"/>
</g>
</svg>
