<?xml version="1.0" encoding="utf-8"?>
<!-- Generator: Adobe Illustrator 19.2.1, SVG Export Plug-In . SVG Version: 6.00 Build 0)  -->
<svg version="1.1" id="Layer_1" opacity="0.2" xmlns="http://www.w3.org/2000/svg" xmlns:xlink="http://www.w3.org/1999/xlink"
	 x="0px" y="0px" viewBox="0 0 232 206" style="enable-background:new 0 0 232 206;" xml:space="preserve">
<style type="text/css">
	.st0{fill:#FFFFFF;}
</style>
<path class="st0" d="M169.7,0c-21.4,0-40.9,10.5-52.3,28.7c-0.4,0.7-1,1.5-1.4,2.3c0,0,0,0,0,0C104.8,11.8,84.4,0,62.3,0
	C27.9,0,0,28.2,0,62.8C0,81.2,7.1,96,21.9,110.5l94.1,95l93.8-94.6C224,98.2,232,81,232,62.8C232,28.2,204.1,0,169.7,0z M198.3,98.2
	L116,181.3l-82.2-83l-0.5-0.5c-9.7-9.8-16.1-21.5-16.1-35c0-25.2,20.2-45.6,45.1-45.6c24.9,0,45.1,20.5,45.1,45.6v0.9h15.8h1.2h0
	v-0.9c0-25.2,20.4-45.6,45.3-45.6s45.1,20.5,45.1,45.6C214.8,76.2,207.8,87.1,198.3,98.2z"/>
</svg>
