<svg id="Layer_1" xmlns="http://www.w3.org/2000/svg" viewBox="0 0 248 100"><style>.st0{fill:#FFFFFF;} .st1{fill:#F5A624;}</style><path class="st0" d="M170.9 33.1c1.2-1 .9-1.6.3-2-.8-.5-2-1.2-3.4-1.7s-1.2.8-1.4 1.2c-.5.6-2 3-6.2 8-3.7 4.4-6.8 6.7-7.2 6.1-.2-.2.4-1.8 1.2-3.5 1.1-2.4 3.9-8.4 5-9.7.8-1.1 0-1.8-.7-2.3-.7-.5-1.4.4-1.4.4s0 .1-.1.2c-.6.8-4.7 5.5-9.9 10.9-5.9 6.2-9.2 7.9-10.3 7.3-1.2-.7.3-7.2 4.5-13.3 0 0-.6 2.1 1.4 2.2 1.7.1 5-3.6 7.1-7.2 2.1-3.7 2.3-6 1.1-7-.9-.8-3.8-2.2-10.7 6.5-6 7.3-12.2 13.8-18.1 19.5-3.7 3.6-8.8 7.3-10.5 6.3-2.1-1.1.4-11 5.3-19.2 4.9-8.2 13-16.5 15.2-16.7 2.1-.2 1.1 5-2.5 10.8-3.2 5.2-5.6 7.5-6.2 7.2-.6-.3.4-1.6 1-2.5 1-1.6 2.6-2.9 1.7-3.9-.2-.3-.6-.6-1.2-.7-1-.3-2.1 1.4-2.8 2.2-1 1.2-3.4 4.9-3.3 7.5.1 2.6 2 2.6 2.9 2.4 1.6-.3 6-4.1 10.4-11.8 4.6-7.9 3.9-12.3 1.5-13.5-3.1-1.5-12.8 2.3-21.9 18.2-5.5 9.6-5.4 15.2-4.6 18.6.7 2.9 3.2 4.2 5.4 4.2 2.1 0 6.8-3.3 11.2-7.7 3.7-3.7 7.7-7.6 11-11.3-1.9 4.9-2.1 10.5 1.8 11.2 1.5.3 3.7-.8 6.2-2.8 3.3-2.6 7.5-7 11.3-11.3-.3.7-1.6 3.1-1.8 3.5-1.1 2.5-3.2 5.8-1.3 7.7 0 0 .6 1 2 1.2 1.9.3 4.8-3.9 6.5-6.1 0 0-2.4 7 1 9.2.8.5 1.7-.8 1.1-.9-.7 0-1.3-1.5 1.4-6.8 2.6-5.1 6.9-9.6 8-10.6zm-25-5c1.5-2.2 2.8-3.6 3.4-3.2.4.3.6 1.2-1.2 4.2-2.4 3.9-4.1 5.2-4.6 4.2-.4-.8.6-2.7 2.4-5.2zM108.1 32.5c1.1-1.4 1.1-1.9-.4-2.9-1.6-1.1-1.8-1.7-3-.5 0 0-5.7 6.7-9.2 10.4-3.5 3.6-4.4 4.9-5 4.6-.6-.3.7-3 3.2-6.8.9-1.3 1.9-3.2 2.5-4.1 1-1.7 1.1-2.3.5-2.9-.5-.5-1.1-.9-2-.4-1.5.8-4 2.6-3.3 3.2.9.7.5.8-2 6.3-1 2.1-3.4 7-1.9 8.1 0 0 .3 1.6 2.1 1.4 2.1-.3 4.2-3.3 6.3-5.5 1.4-1.7 3.3-3.8 3.3-3.8s-1.2 3-1.8 5.5c-.6 2.3-.3 5.7 2.3 7.1.7.1.8-.2.5-1.7-.2-.7-.7-2.9 3.9-11.6 1.5-2.9 2.5-4.5 4-6.4zM92.6 15.1c-1.8-.4-3.1 1.7-3.1 1.7s-8 9.8-17.4 19.6C64 44.9 60.5 48.1 59.9 47.8c-.8-.5 2.2-8 7.2-17.9 5.1-9.9 14.5-24.8 15.2-26 1.2-1.8.5-2.6-1.1-3.6-1-.6-1 0-1.9 1.4-.3.5-1.3 1.9-3.9 6-1.7 2.3-4.6 6-7 8.6C63 22.6 57.3 28 52 32.7c-13.3 11.5-24.2 17.7-28.7 20-6.9 3.5-12.5 5.1-16.2 5.2-4.1.1-3.2-1.4-4.4-3.5-1.4-2-2.7-1.5-2.7-1.5 0 6.2 4.2 8.4 8 9 7.9.7 20-4.9 32.2-13.9.5-.4 1.1-.7 1.5-1.1 16.8-13 21.5-19.8 25.4-24.1.1-.1.3 0 .3.2-5.9 11.5-10.4 21.8-11 24-.5 2.3.8 4.2 1.6 4.7 1.3.9 2.2.1 4.8-2.2 5.8-5.3 14.8-14.9 16.9-17.3.8-.9 1.4-1.5 1.7-1.7.7-.3-.3 1.2-1.1 2.9-2 4.2-6.3 14.4-6.6 16.5-.5 2.8.1 4.4 1.2 5.2 1.1.7 1.3.1 1.2-.5-.4-.8 5.4-13.7 8.6-19.7s8-13.4 10.2-16c2.3-2.7-.5-3.4-2.3-3.8zM247.7 29.1c-1.1-.9-.9-1.9-4.9-1-4.2.9-19.3 4.2-37.9 13.6-9.6 4.8-16 8.4-19.4 10.1-1.5.8 5.6-9.2 5.6-9.2 3.9-5.7 4-8.2-.8-10.4-.3-.1-.6-.2-.8-.4.6-1 3.9-6.4 5.5-9.8 1.5-3.3 1.7-5.2.7-6.1-1-.9-3.4-.5-8.2 4.2-4.6 4.4-5.8 6.9-5.7 8.8.1 1.9 1.4 2.8 3.2 3.5.3.1.8.2 1.1.4-1.8 3.1-2.4 3.7-4.5 6.4C176 46 171.5 49 170.8 49c-1.2-.1-1.1-1.5-.6-2.9.7-1.4 1.7-3.1 2.8-4.2.9-1 .6-1.6-.5-2-.6-.2-2.2-.9-3.4.6-1.2 1.5-2.3 3.1-2.5 6.1-.2 2.9 1.3 4.2 4.1 4.7 2.1.4 6.6-3.1 12.7-10.6 2.2-2.7 3.3-4.5 4.9-6.8.7.4 1.1.7 1.1.7 1.6 1.3 2.8 2.2.2 6.2-.4.6-1 1.4-1.3 1.9-.1.2-.2.3-.4.5-5.6 7.6-7.1 9.5-7.8 11.3-.5 1.5.5 2.2.9 2.8.9 1.2 2.3 1.4 3.7.5 2-1.3 22.6-13.7 44.3-21.8 10.5-3.9 15.4-5.2 17.5-5.5 1.3-.3 1.9-.8 1.2-1.4zm-60.6 1.7c-.3-.1-.2-.1-.5-.2-2.3-.9-1.6-2.5-.1-4.3 2.8-3.3 4.2-4.5 4.9-4.5.1 0 .1 0 .2.1.6.4-.4 1.9-1.4 3.9-.8 1.3-1.8 3.1-3.1 5z"/><g><path class="st0" d="M144.2 67.1c2.7 0 4.3 1.7 4.3 4 0 1.5-.6 2.4-1.4 3 1.3.6 2.1 1.9 2.1 3.8 0 2.8-1.9 4.7-5.4 4.7h-7.5V67.1h7.9zm-.7 6.1c1 0 1.8-.4 1.8-1.6 0-1.1-.7-1.6-1.7-1.6h-4.2v3.2h4.1zm.4 6.5c1.3 0 2.1-.4 2.1-1.7 0-1.3-.9-1.8-2.1-1.8h-4.4v3.6h4.4zM164.3 79.6v3h-11.4V67.1H164v3h-7.9V73h7.2v3h-7.2v3.5h8.2zM193.8 70.2v12.4h-3.1V70.2H186v-3h12.5v3h-4.7zM208.8 73h-4.2v-5.9h-3.1v15.5h7.2c2.9 0 4.8-2.1 4.8-4.8 0-2.6-1.7-4.8-4.7-4.8zm-.2 6.7h-4V76h4c1.2 0 1.8.9 1.8 1.9 0 .8-.5 1.8-1.8 1.8zM179.9 77.2c-.2.4-.5.9-.9 1.4-.8.9-1.9 1.3-3.3 1.3-3.1 0-4.8-2.2-4.8-4.9s1.9-4.9 4.7-4.9c.9 0 1.8.2 2.5.7.8.5 1.5 1.4 1.5 1.4l2.8-1.4c-.2-.3-.7-1.2-1.4-1.8-.3-.2-.8-.7-.8-.7-1.3-.9-2.9-1.3-4.7-1.3-4.8 0-7.8 3.6-7.8 8.1 0 4.4 2.8 8 8 8 2.3 0 4.1-.8 5.5-2.1.7-.7 1.2-1.5 1.6-2.4l-2.9-1.4z"/><g><path class="st0" d="M98.6 79.2l-1.3 3.5h-3.4l6-15.5h3l6 15.5h-3.4l-1.3-3.5h-5.6zm2.8-7.5l-1.7 4.5h3.4l-1.7-4.5zM86.8 70.2v12.4h-3.1V67.1h9.2v3h-6.1zM41.4 73.2h-4.2v-3h7.3v-3.1H34.1v15.5h7.2c2.9 0 4.7-2.1 4.7-4.8 0-2.6-1.6-4.6-4.6-4.6zm-.2 6.5h-4v-3.6h4c1.2 0 1.8.8 1.8 1.8 0 .9-.5 1.8-1.8 1.8zM51.4 67.1v7.8c0 4.5-2 4.9-3 4.9h-.1v2.8h1.3c1.9 0 3.2-1.1 4-2.5.8-1.4.9-5 .9-5v-5H59v12.4h3.2V67.1H51.4zM116.7 67.1c-2.9 0-4.7 2.1-4.7 4.8 0 1.8.8 3.4 2.3 4.1-.4.5-.8 1.2-1.1 2.1-.3 1.1-.5 1.5-1.7 1.5h-.2v2.9h1c2 0 3.1-.2 3.7-2.1 0 0 .3-1 .4-1.5.3-1.1.6-2.3 2.2-2.3h2.1v6h3.2V67.1h-7.2zm4.1 6.6h-4c-1.2 0-1.8-.8-1.8-1.8 0-.9.5-1.8 1.8-1.8h4v3.6zM76.6 82.6H80l-6-15.5h-3l-6 15.5h3.4l1.1-3h5.9l1.2 3zm-5.9-6l1.8-5 1.8 4.9.1.2h-3.7z"/></g></g><g><path class="st1" d="M73.7 93.5c1.4 0 2.6.9 2.6 2.8s-1.2 2.8-2.6 2.8c-1.4 0-2.6-.9-2.6-2.8s1.2-2.8 2.6-2.8zm0 4.7c.8 0 1.5-.6 1.5-1.9 0-1.3-.7-1.9-1.5-1.9s-1.5.6-1.5 1.9c-.1 1.3.7 1.9 1.5 1.9zM80.2 93.5c1.2 0 2 .6 2.3 1.7l-.9.2c-.2-.6-.6-1-1.4-1-.8 0-1.6.6-1.6 1.9 0 1.3.7 1.9 1.6 1.9.8 0 1.1-.4 1.4-1l.9.2c-.3 1.1-1.1 1.7-2.3 1.7-1.4 0-2.6-1-2.6-2.8.1-1.8 1.3-2.8 2.6-2.8zM84.5 99v-5.5h1v2.1h2.2v-2.1h1V99h-1v-2.4h-2.2V99h-1zM93.1 93.5c1.4 0 2.6.9 2.6 2.8s-1.2 2.8-2.6 2.8c-1.4 0-2.6-.9-2.6-2.8.1-1.9 1.3-2.8 2.6-2.8zm0 4.7c.8 0 1.5-.6 1.5-1.9 0-1.3-.7-1.9-1.5-1.9s-1.5.6-1.5 1.9c0 1.3.7 1.9 1.5 1.9zM97.7 99v-5.5h2c.9 0 1.6.5 1.6 1.5 0 .4-.2.8-.5 1 .5.2.8.6.8 1.3 0 1.1-.7 1.6-1.8 1.6h-2.1zm1.1-3.3h.9c.4 0 .6-.1.6-.6 0-.4-.2-.6-.7-.6h-.9v1.2zm0 2.4h.9c.6 0 .9-.3.9-.7 0-.5-.3-.7-.9-.7h-.9v1.4zM103.1 99l1.9-5.5h1l1.9 5.5h-1.1l-.4-1.3h-1.7l-.4 1.3h-1.2zm1.8-2.2h1.2l-.6-1.9-.6 1.9zM109.6 99v-5.5h1v2.1h2.2v-2.1h1V99h-1v-2.4h-2.2V99h-1zM115.4 99l1.9-5.5h1l1.9 5.5H119l-.4-1.3h-1.7l-.4 1.3h-1.1zm1.8-2.2h1.2l-.6-1.9-.6 1.9zM124.5 99v-5.5h2c.9 0 1.6.5 1.6 1.5 0 .4-.2.8-.5 1 .5.2.8.6.8 1.3 0 1.1-.7 1.6-1.8 1.6h-2.1zm1-3.3h.9c.4 0 .6-.1.6-.6 0-.4-.2-.6-.7-.6h-.9v1.2zm0 2.4h.9c.6 0 .9-.3.9-.7 0-.5-.2-.7-.9-.7h-.9v1.4zM133 95.6v-1.1l1.6-.9h.4V99h-1v-4.1l-1 .7zM139.1 93.5c1 0 1.8.7 1.8 1.8 0 .3-.1.7-.3 1l-1.6 2.8h-1.1l1.2-2h-.1c-1 0-1.8-.7-1.8-1.8 0-1 .8-1.8 1.9-1.8zm0 2.7c.5 0 .8-.3.8-.9 0-.5-.4-.9-.8-.9-.5 0-.8.3-.8.9-.1.6.3.9.8.9zM142.6 95.6v-1.1l1.6-.9h.4V99h-1v-4.1l-1 .7zM146.9 96.4l1.6-2.8h1.1l-1.2 2h.1c1 0 1.8.7 1.8 1.8 0 1-.8 1.8-1.8 1.8s-1.8-.7-1.8-1.8c-.1-.4 0-.8.2-1zm1.5 1.8c.5 0 .8-.3.8-.9 0-.6-.4-.9-.8-.9-.5 0-.8.3-.8.9 0 .5.4.9.8.9zM155.4 99v-5.5h3.4v.9h-2.4V99h-1zM162.7 93.5c1.4 0 2.6.9 2.6 2.8s-1.2 2.8-2.6 2.8c-1.4 0-2.6-.9-2.6-2.8s1.2-2.8 2.6-2.8zm0 4.7c.8 0 1.5-.6 1.5-1.9 0-1.3-.7-1.9-1.5-1.9s-1.5.6-1.5 1.9c-.1 1.3.6 1.9 1.5 1.9zM166.4 98.1h.5l.8-4.5h3.1v4.5h.5l-.1 1.9h-.9v-1h-2.9v1h-.9l-.1-1.9zm1.5 0h1.9v-3.6h-1.2l-.7 3.6zM172.7 93.6h1l1.1 2.6 1.1-2.6h1l-2.3 5.5h-.9l.7-1.7-1.7-3.8z"/></g><g><path class="st1" d="M104.2 5.6V.1h1v4.5h2V.1h1v4.5h.6l-.1 2h-.9v-1h-3.6zM110.7 5.6V.1h3.4V1h-2.4v1.2h1.9v.9h-1.9v1.5h2.5v.9h-3.5zM116.2 5.6V.1h2.1c1.2 0 1.7.7 1.7 1.7s-.6 1.7-1.7 1.7h-1.1v2.2h-1zm1-3.1h1c.4 0 .7-.2.7-.7s-.2-.8-.7-.8h-1v1.5zM121.8 5.6V.1h1v2l1.9-2h1.3l-2.2 2.5 2.4 3h-1.3l-2-2.6v2.6h-1.1zM129.6 0c1.4 0 2.6.9 2.6 2.8s-1.2 2.8-2.6 2.8c-1.4 0-2.6-.9-2.6-2.8s1.2-2.8 2.6-2.8zm0 4.7c.8 0 1.6-.6 1.6-1.9 0-1.3-.7-1.9-1.6-1.9-.8 0-1.6.6-1.6 1.9 0 1.3.8 1.9 1.6 1.9zM134.2 5.6V.1h2c.9 0 1.6.5 1.6 1.5 0 .4-.2.8-.5 1 .5.2.8.6.8 1.3 0 1.1-.7 1.7-1.8 1.7h-2.1zm1.1-3.4h.9c.4 0 .6-.1.6-.6 0-.4-.2-.6-.7-.6h-.9v1.2zm0 2.4h.9c.6 0 .9-.3.9-.7 0-.5-.3-.7-.9-.7h-.9v1.4zM140.1 5.6V.1h1v2.1h1c1.1 0 1.8.6 1.8 1.7s-.7 1.7-1.8 1.7h-2zm1-1h.9c.6 0 .9-.3.9-.7 0-.5-.3-.7-.9-.7h-.9v1.4z"/></g></svg>