<svg id="Layer_1" xmlns="http://www.w3.org/2000/svg" viewBox="0 0 21 12"><style>.st0{fill-rule:evenodd;clip-rule:evenodd;fill:#F8A839;}</style><path class="st0" d="M10.3 11.9h1.3s.4 0 .6-.3c.2-.2.2-.6.2-.6s0-1.7.8-1.9c.8-.2 1.8 1.6 2.8 2.3.8.5 1.4.4 1.4.4h2.8s1.5-.1.8-1.2c-.1-.1-.4-.9-2.1-2.4-1.8-1.6-1.5-1.4.6-4.2 1.3-1.7 1.8-2.8 1.6-3.2C20.9.4 20 .5 20 .5h-3.2s-.2 0-.4.1c-.3.1-.4.4-.4.4s-.5 1.3-1.2 2.5c-1.4 2.4-2 2.5-2.2 2.4-.5-.3-.4-1.4-.4-2.1 0-2.3.4-3.3-.7-3.5-.3-.2-.5-.3-1.4-.3C9 0 8 0 7.5.3c-.4.1-.7.5-.5.6.2 0 .7.1.9.5.3.4.3 1.4.3 1.4s.2 2.7-.4 3.1c-.4.2-1-.2-2.3-2.4-.6-1.2-1.1-2.4-1.1-2.4S4.3.8 4.2.7C4 .6 3.7.5 3.7.5h-3S.2.5.1.7c-.1.2 0 .5 0 .5s2.3 5.5 5 8.3c2.4 2.6 5.2 2.4 5.2 2.4z"/></svg>